<?xml version="1.0" encoding="UTF-8" standalone="no"?>
<!-- Created with Inkscape (http://www.inkscape.org/) -->

<svg
   id="svg3768"
   version="1.1"
   viewBox="0 0 210 297"
   height="297mm"
   width="210mm"
   sodipodi:docname="is3Dtext3.svg"
   inkscape:version="1.2.1 (9c6d41e410, 2022-07-14)"
   xmlns:inkscape="http://www.inkscape.org/namespaces/inkscape"
   xmlns:sodipodi="http://sodipodi.sourceforge.net/DTD/sodipodi-0.dtd"
   xmlns="http://www.w3.org/2000/svg"
   xmlns:svg="http://www.w3.org/2000/svg">
  <sodipodi:namedview
     id="namedview3770"
     pagecolor="#ffffff"
     bordercolor="#000000"
     borderopacity="0.25"
     inkscape:showpageshadow="2"
     inkscape:pageopacity="0.0"
     inkscape:pagecheckerboard="0"
     inkscape:deskcolor="#d1d1d1"
     inkscape:document-units="mm"
     showgrid="false"
     inkscape:zoom="1"
     inkscape:cx="343.5"
     inkscape:cy="537"
     inkscape:window-width="1920"
     inkscape:window-height="974"
     inkscape:window-x="-11"
     inkscape:window-y="-11"
     inkscape:window-maximized="1"
     inkscape:current-layer="layer1" />
  <defs
     id="defs3765">
    <inkscape:path-effect
       effect="perspective-envelope"
       up_left_point="53.933142,125.30913"
       up_right_point="156.06644,125.30913"
       down_left_point="46.822463,163.4639"
       down_right_point="163.17712,163.4639"
       id="path-effect4905"
       is_visible="true"
       lpeversion="1"
       deform_type="perspective"
       horizontal_mirror="false"
       vertical_mirror="true"
       overflow_perspective="false" />
    <inkscape:path-effect
       down_right_point="156.06665,166.38263"
       down_left_point="53.93335,166.38263"
       up_right_point="156.06665,130.61737"
       up_left_point="53.93335,130.61737"
       effect="perspective-envelope"
       id="path-effect3926"
       is_visible="true"
       lpeversion="1"
       deform_type="perspective"
       horizontal_mirror="false"
       vertical_mirror="true"
       overflow_perspective="false" />
    <inkscape:path-effect
       effect="perspective-envelope"
       up_left_point="67.258095,145.30448"
       up_right_point="143.85807,145.30448"
       down_left_point="61.925085,173.92056"
       down_right_point="149.19108,173.92056"
       id="path-effect4905-3"
       is_visible="true"
       lpeversion="1"
       deform_type="perspective"
       horizontal_mirror="false"
       vertical_mirror="true"
       overflow_perspective="false" />
    <inkscape:path-effect
       effect="perspective-envelope"
       up_left_point="54.1483,125.18926"
       up_right_point="156.2816,125.18926"
       down_left_point="47.03762,163.34402"
       down_right_point="163.39228,163.34402"
       id="path-effect4905-7"
       is_visible="true"
       lpeversion="1"
       deform_type="perspective"
       horizontal_mirror="false"
       vertical_mirror="true"
       overflow_perspective="false" />
  </defs>
  <g
     inkscape:label="Layer 1"
     inkscape:groupmode="layer"
     id="layer1">
    <g
       id="g5763"
       style="fill:#1a1a1a;fill-opacity:1;stroke:#1a1a1a;stroke-width:10;stroke-dasharray:none;stroke-opacity:1"
       transform="translate(0.74424372,-2.7025862)">
      <path
         d="m 114.139,145.304 -9.169,4.353 -0.754,-15.369 12.225,-5.804 z"
         style="fill:#1a1a1a;fill-opacity:1;stroke:#1a1a1a;stroke-width:10;stroke-linejoin:round;stroke-dasharray:none;stroke-opacity:1"
         id="path5653" />
      <path
         d="m 104.97,149.657 -0.168,18.657 -0.811,-9.151 0.225,-24.875 z"
         style="fill:#1a1a1a;fill-opacity:1;stroke:#1a1a1a;stroke-width:10;stroke-linejoin:round;stroke-dasharray:none;stroke-opacity:1"
         id="path5655" />
      <path
         d="m 104.802,168.314 9.936,5.607 2.501,-7.282 -13.248,-7.476 z"
         style="fill:#1a1a1a;fill-opacity:1;stroke:#1a1a1a;stroke-width:10;stroke-linejoin:round;stroke-dasharray:none;stroke-opacity:1"
         id="path5657" />
      <path
         d="m 114.738,173.921 11.094,-5.304 6.199,-9.049 -14.792,7.071 z"
         style="fill:#1a1a1a;fill-opacity:1;stroke:#1a1a1a;stroke-width:10;stroke-linejoin:round;stroke-dasharray:none;stroke-opacity:1"
         id="path5659" />
      <path
         d="m 125.832,168.617 -1.547,-12.698 5.684,-13.282 2.062,16.931 z"
         style="fill:#1a1a1a;fill-opacity:1;stroke:#1a1a1a;stroke-width:10;stroke-linejoin:round;stroke-dasharray:none;stroke-opacity:1"
         id="path5661" />
      <path
         d="m 124.285,155.919 -10.355,0.199 2.232,-13.216 13.807,-0.265 z"
         style="fill:#1a1a1a;fill-opacity:1;stroke:#1a1a1a;stroke-width:10;stroke-linejoin:round;stroke-dasharray:none;stroke-opacity:1"
         id="path5663" />
      <path
         d="m 113.93,156.118 0.631,5.606 2.443,-11.347 -0.842,-7.475 z"
         style="fill:#1a1a1a;fill-opacity:1;stroke:#1a1a1a;stroke-width:10;stroke-linejoin:round;stroke-dasharray:none;stroke-opacity:1"
         id="path5665" />
      <path
         d="m 114.561,161.724 h 2.618 l 3.315,-11.347 h -3.49 z"
         style="fill:#1a1a1a;fill-opacity:1;stroke:#1a1a1a;stroke-width:10;stroke-linejoin:round;stroke-dasharray:none;stroke-opacity:1"
         id="path5667" />
      <path
         d="m 117.179,161.724 0.094,1.805 3.347,-10.745 -0.126,-2.407 z"
         style="fill:#1a1a1a;fill-opacity:1;stroke:#1a1a1a;stroke-width:10;stroke-linejoin:round;stroke-dasharray:none;stroke-opacity:1"
         id="path5669" />
      <path
         d="m 117.273,163.529 -2.579,1.953 2.487,-10.095 3.439,-2.603 z"
         style="fill:#1a1a1a;fill-opacity:1;stroke:#1a1a1a;stroke-width:10;stroke-linejoin:round;stroke-dasharray:none;stroke-opacity:1"
         id="path5671" />
      <path
         d="m 114.694,165.482 -2.576,-1 1.628,-10.428 3.435,1.333 z"
         style="fill:#1a1a1a;fill-opacity:1;stroke:#1a1a1a;stroke-width:10;stroke-linejoin:round;stroke-dasharray:none;stroke-opacity:1"
         id="path5673" />
      <path
         d="m 112.118,164.482 0.19,-10.886 1.691,-14.056 -0.253,14.514 z"
         style="fill:#1a1a1a;fill-opacity:1;stroke:#1a1a1a;stroke-width:10;stroke-linejoin:round;stroke-dasharray:none;stroke-opacity:1"
         id="path5675" />
      <path
         d="m 112.308,153.596 1.852,-1.318 2.309,-14.495 -2.47,1.757 z"
         style="fill:#1a1a1a;fill-opacity:1;stroke:#1a1a1a;stroke-width:10;stroke-linejoin:round;stroke-dasharray:none;stroke-opacity:1"
         id="path5677" />
      <path
         d="m 114.16,152.278 2.519,0.93 3.148,-14.186 -3.358,-1.239 z"
         style="fill:#1a1a1a;fill-opacity:1;stroke:#1a1a1a;stroke-width:10;stroke-linejoin:round;stroke-dasharray:none;stroke-opacity:1"
         id="path5679" />
      <path
         d="m 116.679,153.208 0.082,1.24 3.177,-13.773 -0.111,-1.653 z"
         style="fill:#1a1a1a;fill-opacity:1;stroke:#1a1a1a;stroke-width:10;stroke-linejoin:round;stroke-dasharray:none;stroke-opacity:1"
         id="path5681" />
      <path
         d="m 116.761,154.448 7.037,-1.223 5.522,-14.18 -9.382,1.63 z"
         style="fill:#1a1a1a;fill-opacity:1;stroke:#1a1a1a;stroke-width:10;stroke-linejoin:round;stroke-dasharray:none;stroke-opacity:1"
         id="path5683" />
      <path
         d="m 123.798,153.225 -0.494,-3.482 5.357,-15.341 0.659,4.643 z"
         style="fill:#1a1a1a;fill-opacity:1;stroke:#1a1a1a;stroke-width:10;stroke-linejoin:round;stroke-dasharray:none;stroke-opacity:1"
         id="path5685" />
      <path
         d="m 123.304,149.743 -9.165,-4.439 2.302,-16.82 12.22,5.918 z"
         style="fill:#1a1a1a;fill-opacity:1;stroke:#1a1a1a;stroke-width:10;stroke-linejoin:round;stroke-dasharray:none;stroke-opacity:1"
         id="path5687" />
      <path
         d="m 96.062,145.484 -0.9134,18.959 -4.0281,-10.441 1.2178,-25.278 z"
         style="fill:#1a1a1a;fill-opacity:1;stroke:#1a1a1a;stroke-width:10;stroke-linejoin:round;stroke-dasharray:none;stroke-opacity:1"
         id="path5689" />
      <path
         d="m 95.1486,164.443 -2.6721,1.039 -4.9188,-10.095 3.5628,-1.385 z"
         style="fill:#1a1a1a;fill-opacity:1;stroke:#1a1a1a;stroke-width:10;stroke-linejoin:round;stroke-dasharray:none;stroke-opacity:1"
         id="path5691" />
      <path
         d="m 92.4765,165.482 -1.913,-1.468 -5.5564,-10.584 2.5506,1.957 z"
         style="fill:#1a1a1a;fill-opacity:1;stroke:#1a1a1a;stroke-width:10;stroke-linejoin:round;stroke-dasharray:none;stroke-opacity:1"
         id="path5693" />
      <path
         d="m 90.5635,164.014 1.2719,-18.497 -5.1325,-16.749 -1.6958,24.662 z"
         style="fill:#1a1a1a;fill-opacity:1;stroke:#1a1a1a;stroke-width:10;stroke-linejoin:round;stroke-dasharray:none;stroke-opacity:1"
         id="path5695" />
      <path
         d="m 91.8354,145.517 -7.1037,1.02 -7.5004,-16.41 9.4716,-1.359 z"
         style="fill:#1a1a1a;fill-opacity:1;stroke:#1a1a1a;stroke-width:10;stroke-linejoin:round;stroke-dasharray:none;stroke-opacity:1"
         id="path5697" />
      <path
         d="m 84.7317,146.537 -2.5246,21.979 -8.342,-9.083 3.3662,-29.306 z"
         style="fill:#1a1a1a;fill-opacity:1;stroke:#1a1a1a;stroke-width:10;stroke-linejoin:round;stroke-dasharray:none;stroke-opacity:1"
         id="path5699" />
      <path
         d="m 82.2071,168.516 10.0783,5.405 -4.9825,-7.282 -13.4378,-7.206 z"
         style="fill:#1a1a1a;fill-opacity:1;stroke:#1a1a1a;stroke-width:10;stroke-linejoin:round;stroke-dasharray:none;stroke-opacity:1"
         id="path5701" />
      <path
         d="m 92.2854,173.921 10.0906,-5.506 -1.619,-9.117 -13.4541,7.341 z"
         style="fill:#1a1a1a;fill-opacity:1;stroke:#1a1a1a;stroke-width:10;stroke-linejoin:round;stroke-dasharray:none;stroke-opacity:1"
         id="path5703" />
      <path
         d="m 102.376,168.415 0.815,-21.994 -1.348,-16.448 -1.086,29.325 z"
         style="fill:#1a1a1a;fill-opacity:1;stroke:#1a1a1a;stroke-width:10;stroke-linejoin:round;stroke-dasharray:none;stroke-opacity:1"
         id="path5705" />
      <path
         d="m 103.191,146.421 -7.129,-0.937 -3.7237,-16.76 9.5047,1.249 z"
         style="fill:#1a1a1a;fill-opacity:1;stroke:#1a1a1a;stroke-width:10;stroke-linejoin:round;stroke-dasharray:none;stroke-opacity:1"
         id="path5707" />
      <path
         d="m 136.752,145.484 2.837,18.959 10.785,-10.441 -3.782,-25.278 z"
         style="fill:#1a1a1a;fill-opacity:1;stroke:#1a1a1a;stroke-width:10;stroke-linejoin:round;stroke-dasharray:none;stroke-opacity:1"
         id="path5709" />
      <path
         d="m 139.589,164.443 -2.467,1.039 9.964,-10.095 3.288,-1.385 z"
         style="fill:#1a1a1a;fill-opacity:1;stroke:#1a1a1a;stroke-width:10;stroke-linejoin:round;stroke-dasharray:none;stroke-opacity:1"
         id="path5711" />
      <path
         d="m 137.122,165.482 -2.203,-1.468 9.229,-10.584 2.938,1.957 z"
         style="fill:#1a1a1a;fill-opacity:1;stroke:#1a1a1a;stroke-width:10;stroke-linejoin:round;stroke-dasharray:none;stroke-opacity:1"
         id="path5713" />
      <path
         d="m 134.919,164.014 -2.387,-18.497 8.433,-16.749 3.183,24.662 z"
         style="fill:#1a1a1a;fill-opacity:1;stroke:#1a1a1a;stroke-width:10;stroke-linejoin:round;stroke-dasharray:none;stroke-opacity:1"
         id="path5715" />
      <path
         d="m 132.532,145.517 -6.902,1.02 6.132,-16.41 9.203,-1.359 z"
         style="fill:#1a1a1a;fill-opacity:1;stroke:#1a1a1a;stroke-width:10;stroke-linejoin:round;stroke-dasharray:none;stroke-opacity:1"
         id="path5717" />
      <path
         d="m 125.63,146.537 1.823,21.979 6.74,-9.083 -2.431,-29.306 z"
         style="fill:#1a1a1a;fill-opacity:1;stroke:#1a1a1a;stroke-width:10;stroke-linejoin:round;stroke-dasharray:none;stroke-opacity:1"
         id="path5719" />
      <path
         d="m 127.453,168.516 11.148,5.405 10.456,-7.282 -14.864,-7.206 z"
         style="fill:#1a1a1a;fill-opacity:1;stroke:#1a1a1a;stroke-width:10;stroke-linejoin:round;stroke-dasharray:none;stroke-opacity:1"
         id="path5721" />
      <path
         d="m 138.601,173.921 9.001,-5.506 13.457,-9.117 -12.002,7.341 z"
         style="fill:#1a1a1a;fill-opacity:1;stroke:#1a1a1a;stroke-width:10;stroke-linejoin:round;stroke-dasharray:none;stroke-opacity:1"
         id="path5723" />
      <path
         d="m 147.602,168.415 -3.536,-21.994 12.278,-16.448 4.715,29.325 z"
         style="fill:#1a1a1a;fill-opacity:1;stroke:#1a1a1a;stroke-width:10;stroke-linejoin:round;stroke-dasharray:none;stroke-opacity:1"
         id="path5725" />
      <path
         d="m 144.066,146.421 -7.314,-0.937 9.84,-16.76 9.752,1.249 z"
         style="fill:#1a1a1a;fill-opacity:1;stroke:#1a1a1a;stroke-width:10;stroke-linejoin:round;stroke-dasharray:none;stroke-opacity:1"
         id="path5727" />
      <path
         d="m 83.1177,145.73 -16.0308,0.493 -13.382,-16.514 21.3744,-0.658 z"
         style="fill:#1a1a1a;fill-opacity:1;stroke:#1a1a1a;stroke-width:10;stroke-linejoin:round;stroke-dasharray:none;stroke-opacity:1"
         id="path5729" />
      <path
         d="m 67.0869,146.223 -4.6893,26.328 -14.9451,-7.738 6.2524,-35.104 z"
         style="fill:#1a1a1a;fill-opacity:1;stroke:#1a1a1a;stroke-width:10;stroke-linejoin:round;stroke-dasharray:none;stroke-opacity:1"
         id="path5731" />
      <path
         d="m 62.3976,172.551 8.3198,0.504 -12.1718,-7.571 -11.0931,-0.671 z"
         style="fill:#1a1a1a;fill-opacity:1;stroke:#1a1a1a;stroke-width:10;stroke-linejoin:round;stroke-dasharray:none;stroke-opacity:1"
         id="path5733" />
      <path
         d="m 70.7174,173.055 1.0533,-9.97 -11.8207,-10.894 -1.4044,13.293 z"
         style="fill:#1a1a1a;fill-opacity:1;stroke:#1a1a1a;stroke-width:10;stroke-linejoin:round;stroke-dasharray:none;stroke-opacity:1"
         id="path5735" />
      <path
         d="m 71.7707,163.085 6.5043,-0.347 -9.6527,-11.009 -8.6723,0.462 z"
         style="fill:#1a1a1a;fill-opacity:1;stroke:#1a1a1a;stroke-width:10;stroke-linejoin:round;stroke-dasharray:none;stroke-opacity:1"
         id="path5737" />
      <path
         d="m 78.275,162.738 0.8146,-6.656 -9.3811,-13.228 -1.0862,8.875 z"
         style="fill:#1a1a1a;fill-opacity:1;stroke:#1a1a1a;stroke-width:10;stroke-linejoin:round;stroke-dasharray:none;stroke-opacity:1"
         id="path5739" />
      <path
         d="m 79.0896,156.082 -6.6248,0.471 -11.5894,-13.071 8.8331,-0.628 z"
         style="fill:#1a1a1a;fill-opacity:1;stroke:#1a1a1a;stroke-width:10;stroke-linejoin:round;stroke-dasharray:none;stroke-opacity:1"
         id="path5741" />
      <path
         d="m 72.4648,156.553 0.3612,-3.433 -11.469,-14.215 -0.4816,4.577 z"
         style="fill:#1a1a1a;fill-opacity:1;stroke:#1a1a1a;stroke-width:10;stroke-linejoin:round;stroke-dasharray:none;stroke-opacity:1"
         id="path5743" />
      <path
         d="m 72.826,153.12 h 9.2688 L 73.7155,138.905 H 61.357 Z"
         style="fill:#1a1a1a;fill-opacity:1;stroke:#1a1a1a;stroke-width:10;stroke-linejoin:round;stroke-dasharray:none;stroke-opacity:1"
         id="path5745" />
      <path
         d="m 82.0948,153.12 1.0225,-7.39 -8.0385,-16.678 -1.3633,9.853 z"
         style="fill:#1a1a1a;fill-opacity:1;stroke:#1a1a1a;stroke-width:10;stroke-linejoin:round;stroke-dasharray:none;stroke-opacity:1"
         id="path5747" />
      <path
         d="m 83.1173,145.73 -0.3231,2.339 -8.1464,-15.899 0.431,-3.118 z"
         style="fill:#1a1a1a;fill-opacity:1;stroke:#1a1a1a;stroke-width:10;stroke-linejoin:round;stroke-dasharray:none;stroke-opacity:1"
         id="path5749" />
      <path
         d="m 82.7942,148.069 0.3235,-2.339 -8.0384,-16.679 -0.4315,3.119 z"
         style="fill:#1a1a1a;fill-opacity:1;stroke:#1a1a1a;stroke-width:10;stroke-linejoin:round;stroke-dasharray:none;stroke-opacity:1"
         id="path5751" />
      <path
         d="m 82.7941,148.069 -0.6988,5.051 -8.3793,-14.215 0.9319,-6.735 z"
         style="fill:#1a1a1a;fill-opacity:1;stroke:#1a1a1a;stroke-width:10;stroke-linejoin:round;stroke-dasharray:none;stroke-opacity:1"
         id="path5753" />
      <path
         d="m 82.0953,153.12 h -4e-4 l -8.3794,-14.215 h 5e-4 z"
         style="fill:#1a1a1a;fill-opacity:1;stroke:#1a1a1a;stroke-width:10;stroke-linejoin:round;stroke-dasharray:none;stroke-opacity:1"
         id="path5755" />
      <path
         d="m 82.0949,153.12 h -10e-5 l -8.3794,-14.215 h 1e-4 z"
         style="fill:#1a1a1a;fill-opacity:1;stroke:#1a1a1a;stroke-width:10;stroke-linejoin:round;stroke-dasharray:none;stroke-opacity:1"
         id="path5757" />
      <path
         d="m 82.0948,153.12 h 0.0021 l -8.3798,-14.215 h -0.0017 z"
         style="fill:#1a1a1a;fill-opacity:1;stroke:#1a1a1a;stroke-width:10;stroke-linejoin:round;stroke-dasharray:none;stroke-opacity:1"
         id="path5759" />
      <path
         d="m 82.0969,153.12 0.6972,-5.051 -8.1462,-15.899 -0.9308,6.735 z"
         style="fill:#1a1a1a;fill-opacity:1;stroke:#1a1a1a;stroke-width:10;stroke-linejoin:round;stroke-dasharray:none;stroke-opacity:1"
         id="path5761" />
    </g>
    <g
       id="path3880"
       style="font-size:47.625px;font-family:Squirk;-inkscape-font-specification:Squirk;fill:#4d3dda;stroke:#000000;stroke-width:0;stroke-linejoin:round;paint-order:stroke fill markers" />
    <g
       id="path3882"
       style="font-size:47.625px;font-family:Squirk;-inkscape-font-specification:Squirk;fill:#4d3dda;stroke:#000000;stroke-width:0;stroke-linejoin:round;paint-order:stroke fill markers" />
    <g
       id="path3884"
       style="font-size:47.625px;font-family:Squirk;-inkscape-font-specification:Squirk;fill:#4d3dda;stroke:#000000;stroke-width:0;stroke-linejoin:round;paint-order:stroke fill markers" />
    <path
       id="path3911"
       style="color:#000000;font-size:47.625px;font-family:Squirk;-inkscape-font-specification:Squirk;fill:#ffffff;stroke:#ffffff;stroke-width:5;stroke-linejoin:round;stroke-dasharray:none;stroke-opacity:1;paint-order:stroke fill markers;fill-opacity:1"
       d="m 116.44095,125.30913 -12.2248,5.80389 -0.22482,24.87519 13.24795,7.47569 14.79208,-7.07129 -2.06255,-16.93091 -13.80706,0.26516 0.84175,7.47542 h 3.49062 l 0.126,2.4065 -3.43892,2.60346 -3.43543,-1.33341 0.25368,-14.51433 2.46911,-1.75673 3.35853,1.23918 0.11049,1.65336 9.38199,-1.62988 -0.65818,-4.64382 z m -24.102616,0.23975 -1.217839,25.2779 -3.562839,1.38546 -2.55058,-1.95683 1.69586,-24.6629 -9.471615,1.35961 -3.366192,29.30557 13.437736,7.20621 13.454345,-7.34101 1.08618,-29.32495 z m 54.253426,0 3.78267,25.2779 -3.28878,1.38546 -2.93768,-1.95683 -3.18298,-24.6629 -9.20266,1.35961 2.43106,29.30557 14.86328,7.20621 12.00214,-7.34101 -4.71491,-29.32495 z m -71.512432,0.32759 -21.374464,0.65757 -6.252331,35.10355 11.093055,0.67184 1.404367,-13.29308 8.672352,-0.46201 1.086173,-8.87572 -8.833121,0.62847 0.481612,-4.57751 h 12.358492 l 1.363294,-9.85262 -0.430911,3.11815 z m -0.431475,3.11864 -0.931849,6.73447 h -5.37e-4 l -5.6e-5,5.2e-4 h 0.0017 z"
       inkscape:path-effect="#path-effect4905"
       inkscape:original-d="m 116.44095,127.44233 -12.20855,6.0694 -0.13953,23.39392 11.65045,6.30194 13.53406,-5.95313 -0.53485,-15.44091 -13.13873,0.25579 0.51159,7.02283 h 3.23236 v 2.18591 l -3.25561,2.32544 -3.09284,-1.18597 0.65113,-13.62708 2.44171,-1.74407 3.18585,1.23248 0.0233,1.62781 9.11572,-1.60456 -0.2558,-4.67413 z m -24.091548,0.2558 -0.04651,24.67291 -3.185852,1.23248 -2.441711,-1.74408 0.04651,-24.1148 -9.325012,1.44177 -0.37207,27.95178 12.441101,6.0694 11.720212,-6.18567 0.67438,-27.99829 z m 54.205998,0 -0.0465,24.67291 -3.18586,1.23248 -2.44171,-1.74408 0.0465,-24.1148 -9.32501,1.44177 -0.37207,27.95178 12.4411,6.0694 11.72022,-6.18567 0.67437,-27.99829 z m -71.41425,0.34881 -21.208008,0.69764 0.255798,32.95147 9.883118,0.55811 -0.534851,-11.51093 7.929749,-0.41858 v -8.30181 l -8.301819,0.60461 -0.20929,-4.46484 H 74.86158 l 0.279053,-10.11515 -0.08992,3.27887 z m -0.09043,3.27939 -0.188619,6.83628 h -5.17e-4 v 5.1e-4 h 0.0016 z" />
    <path
       id="path3911-0"
       style="color:#000000;font-size:47.625px;font-family:Squirk;-inkscape-font-specification:Squirk;fill:#3934b8;fill-opacity:1;stroke:#3934b8;stroke-width:1;stroke-linejoin:round;stroke-dasharray:none;stroke-opacity:1;paint-order:stroke fill markers"
       d="m 116.65611,125.18926 -12.2248,5.80389 -0.22482,24.87518 13.24795,7.47569 14.79208,-7.07128 -2.06255,-16.93091 -13.80706,0.26516 0.84175,7.47542 h 3.49062 l 0.12601,2.4065 -3.43893,2.60346 -3.43543,-1.33341 0.25368,-14.51433 2.46911,-1.75673 3.35853,1.23918 0.11049,1.65336 9.38199,-1.62988 -0.65818,-4.64383 z m -24.102617,0.23975 -1.217828,25.27789 -3.562837,1.38546 -2.550583,-1.95683 1.69586,-24.6629 -9.471616,1.35962 -3.366191,29.30556 13.43773,7.20621 13.454352,-7.341 1.08618,-29.32495 z m 54.253427,0 3.78267,25.27789 -3.28878,1.38546 -2.93768,-1.95683 -3.18299,-24.6629 -9.20265,1.35962 2.43106,29.30556 14.86328,7.20621 12.00215,-7.341 -4.71492,-29.32495 z m -71.512433,0.32758 -21.374464,0.65757 -6.252332,35.10355 11.093055,0.67184 1.404368,-13.29308 8.67235,-0.462 1.086173,-8.87572 -8.833119,0.62846 0.48161,-4.5775 h 12.358493 l 1.363294,-9.85262 -0.43091,3.11814 z m -0.431475,3.11864 -0.93185,6.73448 h -5.37e-4 l -5.7e-5,5.2e-4 h 0.0017 z"
       inkscape:path-effect="#path-effect4905-7"
       inkscape:original-d="m 116.65611,127.32246 -12.20855,6.0694 -0.13953,23.39391 11.65045,6.30194 13.53406,-5.95312 -0.53485,-15.44091 -13.13873,0.25579 0.51159,7.02283 h 3.23236 v 2.18591 l -3.25561,2.32544 -3.09284,-1.18597 0.65113,-13.62708 2.44171,-1.74407 3.18585,1.23248 0.0233,1.62781 9.11572,-1.60456 -0.2558,-4.67414 z m -24.091549,0.2558 -0.0465,24.6729 -3.18585,1.23248 -2.441714,-1.74408 0.04651,-24.1148 -9.325012,1.44178 -0.37207,27.95177 12.441096,6.0694 11.720219,-6.18566 0.67438,-27.99829 z m 54.205999,0 -0.0465,24.6729 -3.18586,1.23248 -2.44171,-1.74408 0.0465,-24.1148 -9.32501,1.44178 -0.37207,27.95177 12.4411,6.0694 11.72022,-6.18566 0.67437,-27.99829 z m -71.414252,0.3488 -21.208008,0.69764 0.255798,32.95147 9.883118,0.55811 -0.534851,-11.51093 7.929749,-0.41857 v -8.30181 l -8.301819,0.6046 -0.20929,-4.46483 h 11.905733 l 0.279053,-10.11515 -0.08992,3.27886 z m -0.09043,3.27939 -0.188619,6.83629 h -5.17e-4 v 5.1e-4 h 0.0016 z" />
  </g>
</svg>
