<svg version="1.1" xmlns="http://www.w3.org/2000/svg" xmlns:xlink="http://www.w3.org/1999/xlink" width="110.32254" height="48.62395" viewBox="0,0,110.32254,48.62395"><g transform="translate(-185.17552,-155.95599)"><g data-paper-data="{&quot;isPaintingLayer&quot;:true}" fill-rule="nonzero" stroke-linecap="butt" stroke-linejoin="round" stroke-miterlimit="10" stroke-dasharray="" stroke-dashoffset="0" style="mix-blend-mode: normal"><g fill="#1a1a1a" stroke="#1a1a1a" stroke-width="7.5"><path d="M249.28188,174.92937l-8.29864,3.93979l-0.68243,-13.91011l11.06457,-5.25305z"/><path d="M240.98324,178.86916l-0.15204,16.886l-0.73401,-8.28236l0.20363,-22.51376z"/><path d="M240.09718,187.47282l11.99046,6.76636l-2.2636,6.59076l-8.99284,-5.07476z"/><path d="M252.08762,194.23916l13.3879,-6.3998l-5.61056,8.19002l-10.04092,4.80053z"/><path d="M259.86495,196.02941l-1.40016,-11.49266l5.14446,-12.02122l1.86626,15.32385z"/><path d="M258.4648,184.53675l-9.37207,0.1801l2.02013,-11.96149l12.49639,-0.23985z"/><path d="M251.11286,172.75538l0.76207,6.76544l-2.2111,10.26991l-0.57111,-5.07386z"/><path d="M251.87493,179.52083h3.15871l-3.00034,10.26991h-2.3695z"/><path d="M255.03364,179.52083l0.11404,2.17851l-3.02929,9.72505l-0.08507,-1.63366z"/><path d="M252.1184,191.42439l-2.33419,1.76761l2.25093,-9.13675l3.11257,-2.35592z"/><path d="M249.7842,193.192l-2.33147,-0.90508l1.47347,-9.43814l3.10893,1.20647z"/><path d="M247.45273,192.28692l0.17196,-9.85265l1.53048,-12.72175l-0.22899,13.13627z"/><path d="M249.15517,169.71252l2.23554,-1.59021l-2.08981,13.11907l-1.67621,1.19289z"/><path d="M251.39072,168.12229l3.03926,1.12138l-2.84918,12.8394l-2.27988,-0.84172z"/><path d="M254.42997,169.24369l0.10046,1.49609l-2.87543,12.46562l-0.07423,-1.1223z"/><path d="M254.53043,170.73978l8.49143,-1.47528l-4.99783,12.83398l-6.36902,1.10691z"/><path d="M258.02401,182.09848l-0.4471,-3.15147l4.84849,-13.88478l0.59645,4.20226z"/><path d="M257.57691,178.947l-8.29503,-4.01763l2.08348,-15.22338l11.06004,5.35625z"/><path d="M232.92084,175.09227l-0.8267,17.15934l-3.64574,-9.44989l1.10221,-22.87851z"/><path d="M232.09414,192.25163l-2.41845,0.94037l-4.45189,-9.13675l3.2246,-1.25353z"/><path d="M229.67568,193.192l-1.73141,-1.32865l-5.02896,-9.57932l2.30848,1.77122z"/><path d="M222.91529,182.28403l1.53483,-22.32099l4.64531,15.15912l-1.15116,16.74119z"/><path d="M229.09543,175.12216l-6.4294,0.92317l-6.78843,-14.85231l8.57252,-1.23z"/><path d="M222.66604,176.04533l-2.28495,19.89267l-7.55015,-8.2208l3.04668,-26.52416z"/><path d="M212.83095,187.71718l12.16222,6.52198l4.50955,6.59076l-9.12162,-4.89193z"/><path d="M224.99317,194.23916l12.17698,-6.64415l1.46531,8.25158l-9.13276,4.98336z"/><path d="M237.17016,187.595l0.98292,-26.54136l1.22003,14.8867l-0.73763,19.90624z"/><path d="M239.37311,175.94035l-6.4523,-0.84805l-3.37023,-15.16907l8.60247,1.13044z"/><path d="M278.65433,159.92321l3.42299,22.87851l-9.76125,9.44989l-2.56771,-17.15934z"/><path d="M272.31607,192.25163l-2.23282,0.94037l9.01818,-9.13675l2.97589,-1.25353z"/><path d="M270.08325,193.192l-1.99388,-1.32865l8.35295,-9.57932l2.65911,1.77122z"/><path d="M268.08937,191.86335l-2.16042,-16.74119l7.6325,-15.15912l2.88085,22.32099z"/><path d="M265.92895,175.12216l-6.24684,0.92317l5.54994,-14.85231l8.32942,-1.23z"/><path d="M265.23204,161.19302l2.20024,26.52416l-6.10021,8.2208l-1.64996,-19.89267z"/><path d="M267.43228,187.71718l13.45304,6.52198l-9.46347,6.59076l-10.08978,-4.89193z"/><path d="M280.88535,194.23916l10.86272,-6.64415l-12.17962,8.25158l-8.1466,4.98336z"/><path d="M279.56845,195.84658l-3.20035,-19.90624l11.11252,-14.8867l4.26743,26.54136z"/><path d="M276.36809,175.94035l-6.61973,-0.84805l8.90595,-15.16907l8.8263,1.13044z"/><path d="M221.20526,175.31493l-14.50908,0.44621l-12.11172,-14.94643l19.34547,-0.59553z"/><path d="M206.69615,175.76114l-4.24418,23.82885l-13.52644,-7.00349l5.6589,-31.77179z"/><path d="M188.92552,192.5865l10.04011,0.60731l11.01642,6.85234l-7.53006,-0.45615z"/><path d="M198.96563,193.19381l1.27108,-12.03118l10.69864,9.8599l-0.95332,9.0236z"/><path d="M200.23671,181.16262l7.84908,-0.41815l8.73643,9.96399l-5.88689,0.31406z"/><path d="M208.08582,180.7445l0.9831,-8.03256l8.49061,11.97235l-0.73728,6.02418z"/><path d="M217.55952,184.68428l-5.99595,0.42629l-10.4893,-11.83025l7.99462,-0.56839z"/><path d="M201.07427,173.28032l0.43589,-4.14253l10.38031,12.86565l-0.32692,3.10713z"/><path d="M201.51016,169.13779h11.18537l7.58391,12.86565h-8.38898z"/><path d="M212.69554,169.13779l1.2339,-8.91772l7.27545,15.09486l-0.92544,6.68852z"/><path d="M221.20489,175.31493l-0.29242,2.11698l-7.37312,-14.3898l0.39009,-2.82202z"/><path d="M213.53935,163.04211l0.39055,-2.82293l7.27536,15.09576l-0.29279,2.11698z"/><path d="M220.91238,177.43191l-0.63247,4.57154l-7.58391,-12.86565l0.84344,-6.09569z"/><path d="M220.27991,182.00345h-0.00037l-7.584,-12.86565h0.00046z"/><path d="M220.27954,182.00345h-0.00009l-7.584,-12.86565h0.00009z"/><path d="M212.69545,169.13779h0.00155l7.58435,12.86565h-0.00189z"/><path d="M212.697,169.13779l0.84244,-6.09569l7.37292,14.3898l-0.63101,4.57154z"/></g><path d="M261.75215,164.6343l0.5957,4.20302l-8.49141,1.47517l-0.1,-1.49641l-3.03973,-1.12156l-2.23474,1.58997l-0.2296,13.13657l3.10932,1.20684l3.11248,-2.35633l-0.11404,-2.17805h-3.15928l-0.76185,-6.76583l12.49644,-0.23998l1.86676,15.32377l-13.38796,6.40006l-11.99039,-6.76607l0.20348,-22.51393l11.06437,-5.25297zM237.47982,160.62603l-0.98308,26.54131l-12.1772,6.64418l-12.16218,-6.52217l3.04666,-26.52377l8.57254,-1.23055l-1.53488,22.32179l2.30846,1.77107l3.22465,-1.25395l1.10223,-22.87843zM286.80694,160.62603l4.26734,26.54131l-10.86285,6.64418l-13.45239,-6.52217l-2.2003,-26.52377l8.32912,-1.23055l2.88083,22.32179l2.65883,1.77107l2.97659,-1.25395l-3.4236,-22.87843zM212.86578,162.61462l0.39,-2.82217l-1.23388,8.91738h-11.18537l-0.43589,4.14299l7.99464,-0.56882l-0.98308,8.03321l-7.84915,0.41815l-1.27106,12.03125l-10.04007,-0.60807l5.65884,-31.77138l19.34551,-0.59516zM212.02341,168.71031h-0.00155l0.00004,-0.00048h0.00048l0.84339,-6.09521z" fill="#ffffff" stroke="#ffffff" stroke-width="3.75"/><path d="M261.94688,164.52581l0.5957,4.20302l-8.49141,1.47517l-0.1,-1.49641l-3.03973,-1.12156l-2.23474,1.58997l-0.2296,13.13657l3.10932,1.20684l3.1125,-2.35633l-0.11404,-2.17805h-3.15928l-0.76185,-6.76583l12.49644,-0.23998l1.86676,15.32377l-13.38796,6.40006l-11.99039,-6.76607l0.20348,-22.51393l11.06437,-5.25297zM237.67457,160.51754l-0.98308,26.54131l-12.17722,6.64415l-12.16216,-6.52217l3.04666,-26.52377l8.57254,-1.23057l-1.53488,22.32179l2.30848,1.77107l3.22465,-1.25395l1.10223,-22.87843zM287.00167,160.51754l4.26736,26.54131l-10.86287,6.64415l-13.45239,-6.52217l-2.2003,-26.52377l8.32909,-1.23057l2.88085,22.32179l2.65883,1.77107l2.97659,-1.25395l-3.4236,-22.87843zM213.06053,162.50613l0.39,-2.82215l-1.23388,8.91738h-11.18537l-0.43589,4.14299l7.99464,-0.5688l-0.98308,8.03321l-7.84915,0.41815l-1.27106,12.03125l-10.04007,-0.60807l5.65884,-31.77138l19.34551,-0.59516zM212.21814,168.60182h-0.00155l0.00004,-0.00048h0.00048l0.84339,-6.09523z" fill="#3934b8" stroke="#3934b8" stroke-width="0.75"/></g></g></svg>