<svg version="1.1" xmlns="http://www.w3.org/2000/svg" xmlns:xlink="http://www.w3.org/1999/xlink" width="52.23722" height="23.89256" viewBox="0,0,52.23722,23.89256"><g transform="translate(-214.03611,-168.17683)"><g data-paper-data="{&quot;isPaintingLayer&quot;:true}" fill-rule="nonzero" stroke-linecap="butt" stroke-linejoin="round" stroke-miterlimit="10" stroke-dasharray="" stroke-dashoffset="0" style="mix-blend-mode: normal"><g fill="#4d3dda" stroke="#000000" stroke-width="0" font-family="Squirk" font-weight="400" font-size="47.625" text-anchor="start"/><g fill="#1a1a1a" stroke="#1a1a1a" stroke-width="5"><path d="M244.26414,177.67053l-3.81244,1.80996l-0.31351,-6.39038l5.08312,-2.41328z"/><path d="M240.4517,179.48049l-0.06985,7.75752l-0.33721,-3.80496l0.09355,-10.34294z"/><path d="M240.04464,183.43306l5.50848,3.1085l-1.03991,3.02783l-4.13136,-2.33137z"/><path d="M245.55311,186.54155l6.15047,-2.9401l-2.57752,3.76254l-4.61285,2.20539z"/><path d="M249.12606,187.364l-0.64324,-5.27979l2.36339,-5.52261l0.85737,7.03986z"/><path d="M248.48282,182.08421l-4.30558,0.08274l0.92806,-5.49517l5.74091,-0.11019z"/><path d="M245.1053,176.67179l0.3501,3.10808l-1.01579,4.71805l-0.26237,-2.33096z"/><path d="M245.4554,179.77987h1.45113l-1.37837,4.71805h-1.08856z"/><path d="M246.90653,179.77987l0.05239,1.00082l-1.39167,4.46774l-0.03908,-0.75051z"/><path d="M245.56725,185.24843l-1.07234,0.81205l1.03409,-4.19747l1.42993,-1.08232z"/><path d="M244.49491,186.06048l-1.07109,-0.4158l0.67692,-4.33593l1.42826,0.55426z"/><path d="M243.42382,185.64468l0.079,-4.52636l0.70311,-5.84444l-0.1052,6.03487z"/><path d="M244.20593,175.27388l1.02702,-0.73055l-0.96007,6.02697l-0.77006,0.54802z"/><path d="M245.23295,174.54332l1.39625,0.51517l-1.30893,5.89849l-1.04739,-0.38669z"/><path d="M246.6292,175.0585l0.04615,0.68731l-1.32099,5.72677l-0.0341,-0.51559z"/><path d="M246.67535,175.74581l3.90101,-0.67775l-2.29603,5.896l-2.92596,0.50852z"/><path d="M248.28032,180.96406l-0.2054,-1.4478l2.22742,-6.37874l0.27401,1.93054z"/><path d="M248.07492,179.51625l-3.81078,-1.84572l0.95716,-6.9937l5.08104,2.46069z"/><path d="M236.74779,177.74537l-0.37979,7.88309l-1.67487,-4.34133l0.50636,-10.51051z"/><path d="M236.368,185.62847l-1.11105,0.43201l-2.04522,-4.19747l1.4814,-0.57588z"/><path d="M235.25695,186.06048l-0.79542,-0.61039l-2.31033,-4.40079l1.06053,0.81371z"/><path d="M232.15119,181.0493l0.70511,-10.25438l2.13408,6.96418l-0.52885,7.69099z"/><path d="M234.99038,177.7591l-2.9537,0.42411l-3.11864,-6.82323l3.93826,-0.56507z"/><path d="M232.03668,178.18321l-1.04972,9.1388l-3.46858,-3.77668l1.39966,-12.18534z"/><path d="M227.51839,183.54532l5.58739,2.99623l2.07171,3.02783l-4.19052,-2.24738z"/><path d="M233.10578,186.54155l5.59417,-3.05236l0.67317,3.79082l-4.19564,2.28938z"/><path d="M238.69995,183.48919l0.45156,-12.19324l0.56049,6.83903l-0.33887,9.14503z"/><path d="M239.712,178.13498l-2.96422,-0.3896l-1.5483,-6.96875l3.95202,0.51933z"/><path d="M257.758,170.77662l1.57254,10.51051l-4.48437,4.34133l-1.17962,-7.88309z"/><path d="M254.84617,185.62847l-1.02577,0.43201l4.143,-4.19747l1.36714,-0.57588z"/><path d="M253.8204,186.06048l-0.916,-0.61039l3.83739,-4.40079l1.22161,0.81371z"/><path d="M252.9044,185.45009l-0.99251,-7.69099l3.50641,-6.96418l1.32348,10.25438z"/><path d="M251.91189,177.7591l-2.86983,0.42411l2.54967,-6.82323l3.82658,-0.56507z"/><path d="M251.59173,171.35998l1.0108,12.18534l-2.80247,3.77668l-0.758,-9.1388z"/><path d="M252.60253,183.54532l6.1804,2.99623l-4.34757,3.02783l-4.6353,-2.24738z"/><path d="M258.78294,186.54155l4.99039,-3.05236l-5.59538,3.79082l-3.74259,2.28938z"/><path d="M258.17795,187.28001l-1.47026,-9.14503l5.10515,-6.83903l1.96048,12.19324z"/><path d="M256.70769,178.13498l-3.04114,-0.3896l4.09144,-6.96875l4.05485,0.51933z"/><path d="M231.36559,177.84766l-6.66555,0.20499l-5.56419,-6.86647l8.88741,-0.27359z"/><path d="M224.70003,178.05265l-1.9498,10.9471l-6.21412,-3.21744l2.59973,-14.59613z"/><path d="M216.53611,185.78231l4.61248,0.279l5.061,3.148l-3.45935,-0.20956z"/><path d="M221.14859,186.06131l0.58394,-5.52719l4.91501,4.52969l-0.43796,4.14549z"/><path d="M221.73253,180.53412l3.60591,-0.1921l4.01356,4.57751l-2.70447,0.14428z"/><path d="M225.33845,180.34203l0.45164,-3.6902l3.90063,5.50016l-0.33871,2.76754z"/><path d="M229.69072,182.15199l-2.75457,0.19584l-4.81884,-5.43488l3.67277,-0.26112z"/><path d="M222.11731,176.91295l0.20025,-1.9031l4.76877,5.91055l-0.15019,1.42743z"/><path d="M222.31756,175.00985h5.13862l3.48409,5.91055h-3.85394z"/><path d="M227.45618,175.00985l0.56686,-4.09685l3.34238,6.93466l-0.42515,3.07274z"/><path d="M231.36542,177.84766l-0.13434,0.97255l-3.38725,-6.61075l0.17921,-1.29645z"/><path d="M227.84383,172.20946l0.17942,-1.29687l3.34234,6.93507l-0.13451,0.97255z"/><path d="M231.23104,178.82021l-0.29056,2.10019l-3.48409,-5.91055l0.38748,-2.80039z"/><path d="M230.94048,180.9204h-0.00017l-3.48413,-5.91055h0.00021z"/><path d="M230.94031,180.9204h-0.00004l-3.48413,-5.91055h0.00004z"/><path d="M227.45614,175.00985h0.00071l3.48429,5.91055h-0.00087z"/><path d="M227.45685,175.00985l0.38702,-2.80039l3.38716,6.61075l-0.28989,2.10019z"/></g><path d="M249.99305,172.94092l0.27367,1.93089l-3.901,0.6777l-0.04594,-0.68746l-1.39647,-0.51525l-1.02665,0.73044l-0.10548,6.03501l1.42844,0.55443l1.42989,-1.08251l-0.05239,-1.00061h-1.45139l-0.35,-3.10826l5.74093,-0.11025l0.8576,7.03982l-6.1505,2.94022l-5.50845,-3.10837l0.09348,-10.34302l5.08303,-2.41324zM238.84221,171.0995l-0.45163,12.19322l-5.59427,3.05237l-5.58737,-2.99632l1.39965,-12.18516l3.93827,-0.56532l-0.70513,10.25475l1.06052,0.81364l1.48142,-0.57607l0.50637,-10.51047zM261.50335,171.0995l1.96044,12.19322l-4.99045,3.05237l-6.1801,-2.99632l-1.01083,-12.18516l3.82644,-0.56532l1.32347,10.25475l1.22148,0.81364l1.36746,-0.57607l-1.57282,-10.51047zM227.53439,172.01307l0.17917,-1.29652l-0.56685,4.09669h-5.13862l-0.20025,1.90331l3.67278,-0.26132l-0.45163,3.6905l-3.60594,0.1921l-0.58393,5.52722l-4.61246,-0.27935l2.5997,-14.59594l8.88743,-0.27342zM227.1474,174.81346h-0.00071l0.00002,-0.00022h0.00022l0.38746,-2.80017z" fill="#ffffff" stroke="#ffffff" stroke-width="2.5"/><path d="M250.08251,172.89108l0.27367,1.93089l-3.901,0.6777l-0.04594,-0.68746l-1.39647,-0.51525l-1.02665,0.73044l-0.10548,6.03501l1.42844,0.55443l1.4299,-1.08251l-0.05239,-1.00061h-1.45139l-0.35,-3.10826l5.74093,-0.11025l0.8576,7.03982l-6.1505,2.94022l-5.50845,-3.10837l0.09348,-10.34302l5.08303,-2.41324zM238.93168,171.04966l-0.45163,12.19322l-5.59428,3.05236l-5.58736,-2.99632l1.39965,-12.18516l3.93827,-0.56533l-0.70513,10.25475l1.06053,0.81364l1.48142,-0.57607l0.50637,-10.51047zM261.59281,171.04966l1.96045,12.19322l-4.99046,3.05236l-6.1801,-2.99632l-1.01083,-12.18516l3.82643,-0.56533l1.32348,10.25475l1.22148,0.81364l1.36746,-0.57607l-1.57282,-10.51047zM227.62386,171.96323l0.17917,-1.29651l-0.56685,4.09669h-5.13862l-0.20025,1.90331l3.67278,-0.26131l-0.45163,3.6905l-3.60594,0.1921l-0.58393,5.52722l-4.61246,-0.27935l2.5997,-14.59594l8.88743,-0.27342zM227.23686,174.76362h-0.00071l0.00002,-0.00022h0.00022l0.38746,-2.80018z" fill="#3934b8" stroke="#3934b8" stroke-width="0"/></g></g></svg>