<svg version="1.1" xmlns="http://www.w3.org/2000/svg" xmlns:xlink="http://www.w3.org/1999/xlink" width="148.8057" height="40.544" viewBox="0,0,148.8057,40.544"><g transform="translate(-165.59717,-159.72814)"><g data-paper-data="{&quot;isPaintingLayer&quot;:true}" fill-rule="nonzero" stroke-linecap="butt" stroke-linejoin="round" stroke-miterlimit="10" stroke-dasharray="" stroke-dashoffset="0" style="mix-blend-mode: normal"><g fill="#000000" stroke="#000000" stroke-width="10"><path d="M287.15087,186.16814h-2.005l15.048,-10.767h2.674z"/><path d="M300.19387,175.40114c-0.29467,0.40333 -0.57367,0.791 -0.837,1.163l-14.839,10.476c0.19733,-0.27934 0.40666,-0.57 0.628,-0.872z"/><path d="M299.35687,176.56414l3.441,-0.116l-15.699,10.505l-2.581,0.087z"/><path d="M287.09887,186.95314c-0.058,-0.04666 -0.151,-0.11633 -0.279,-0.209l15.606,-10.575c0.17066,0.124 0.29467,0.217 0.372,0.279z"/><path d="M286.81987,186.74414c-0.11667,-0.10467 -0.204,-0.18034 -0.262,-0.227l15.52,-10.65c0.07734,0.062 0.19334,0.16267 0.348,0.302z"/><path d="M302.07787,175.86714l0.79,-0.466l-15.717,10.767l-0.593,0.349z"/><path d="M288.65087,180.84914h-8.598l13.351,-12.54h11.464z"/><path d="M293.40387,168.30914v0.907l-13.351,12.313v-0.68z"/><path d="M293.40387,169.21614h11.464l-16.217,12.313h-8.598z"/><path d="M288.65087,181.52914v-0.68l16.217,-12.54v0.907z"/><path d="M302.40287,183.93614h7l-17.351,8.633h-5.25z"/><path d="M309.40287,183.93614v2.697l-17.351,7.959v-2.023z"/><path d="M292.05187,194.59214h-12.871l13.06,-7.959h17.162z"/><path d="M279.18087,194.59214v-2.023l13.06,-8.633v2.697z"/><path d="M292.24087,183.93614h6.79l-14.758,8.633h-5.092z"/><path d="M284.27287,192.56914v-0.837l14.758,-8.912v1.116z"/><path d="M284.27287,191.73214h-3.976l13.432,-8.912h5.302z"/><path d="M280.29687,191.73214v-2.023l13.432,-9.587v2.698z"/><path d="M293.72887,180.12214h5.302l-14.758,9.587h-3.976z"/><path d="M284.27287,189.70914v-0.768l14.758,-9.842v1.023z"/><path d="M284.27287,188.94114l-4.22,0.175l13.351,-9.785l5.627,-0.232z"/><path d="M280.05287,189.11614l-0.087,-1.971l13.321,-10.441l0.117,2.627z"/><path d="M293.28687,176.70414l2.372,-0.047l-13.914,10.453l-1.779,0.035z"/><path d="M281.74487,187.11014c0.20866,-0.36067 0.38867,-0.67467 0.54,-0.942l14.095,-10.766c-0.20133,0.356 -0.44166,0.77434 -0.721,1.255z"/><path d="M282.28487,186.16814h-2.285l13.334,-10.766h3.046z"/><path d="M293.33387,175.40214c-0.248,5.23934 -1.20934,9.146 -2.884,11.72l-12.612,7.836c1.25533,-1.93 1.976,-4.86 2.162,-8.79z"/><path d="M277.83787,194.95814c-0.256,-0.22066 -0.62234,-0.47066 -1.099,-0.75l12.246,-8.086c0.636,0.372 1.12433,0.70533 1.465,1z"/><path d="M276.73887,194.20814c-0.47667,-0.26734 -0.88367,-0.465 -1.221,-0.593l11.84,-8.284c0.44934,0.17067 0.99167,0.43434 1.627,0.791z"/><path d="M275.51787,193.61514c0.41866,-0.63933 0.76166,-1.366 1.029,-2.18l12.183,-9.011c-0.35667,1.08533 -0.814,2.05434 -1.372,2.907z"/><path d="M276.54687,191.43514c0.27934,-0.814 0.477,-1.68033 0.593,-2.599l12.38,-9.877c-0.15467,1.22534 -0.418,2.38034 -0.79,3.465z"/><path d="M277.13987,188.83614c0.11667,-0.918 0.19234,-1.72 0.227,-2.406l12.456,-10.68c-0.04666,0.91467 -0.14766,1.98433 -0.303,3.209z"/><path d="M277.36687,186.43014c0.03467,-0.686 0.052,-1.471 0.052,-2.355l12.473,-11.464c0,1.178 -0.023,2.22433 -0.069,3.139z"/><path d="M277.41887,184.07514v-5.284l12.473,-13.226v7.046z"/><path d="M289.89187,165.56514h18.488l-17.095,13.226h-13.866z"/><path d="M308.37987,165.56514v6.418l-17.095,11.621v-4.813z"/><path d="M291.28487,183.60414h-11.232l13.351,-11.621h14.976z"/><path d="M293.40387,171.98314v0.628l-13.351,11.464v-0.471z"/><path d="M293.40387,172.61114v0.116l-13.351,11.435v-0.087z"/><path d="M293.40387,172.72714h15.557l-17.24,11.435h-11.668z"/><path d="M308.96087,172.72714v2.674l-17.24,10.767v-2.006z"/><path d="M291.72087,186.16814h-2.023l16.565,-10.767h2.698z"/><path d="M306.26287,175.40114c1.442,1.132 2.473,2.07 3.093,2.814l-17.339,10.063c-0.46467,-0.558 -1.23766,-1.26134 -2.319,-2.11z"/><path d="M309.35587,178.21514l-2.907,1.768l-16.612,9.621l2.18,-1.326z"/><path d="M289.83687,189.60414c-0.256,-0.32533 -0.506,-0.61033 -0.75,-0.855l16.363,-9.906c0.32533,0.32533 0.65833,0.70533 0.999,1.14z"/><path d="M289.08687,188.74914l-2.285,0.087l15.601,-9.877l3.047,-0.116z"/><path d="M302.40287,178.95914v1.163l-15.601,9.586v-0.872z"/><path d="M302.40287,180.12214h5.372l-16.944,9.586h-4.029z"/><path d="M307.77487,180.12214v2.698l-16.944,8.912v-2.024z"/><path d="M290.83087,191.73214h-4.029l15.601,-8.912h5.372z"/><path d="M302.40287,182.82014v1.116l-15.601,8.633v-0.837z"/><path d="M263.76287,190.12714h-2.721l7.014,-9.447h3.628z"/><path d="M268.05587,180.68014v2.419l-7.014,8.842v-1.814z"/><path d="M268.05587,183.09914h3.628l-7.921,8.842h-2.721z"/><path d="M263.76287,191.94114v-1.814l7.921,-9.447v2.419z"/><path d="M258.65287,194.97614v-7.081l6.218,-10.191v9.441z"/><path d="M264.87087,177.70414h10.162l-8.758,10.191h-7.622z"/><path d="M275.03287,177.70414v9.371l-8.758,7.848v-7.028z"/><path d="M266.27487,194.92314h-2.512l7.921,-7.848h3.349z"/><path d="M263.76287,194.92314v-0.75l7.921,-8.098v1z"/><path d="M263.76287,194.17314h-2.721l7.014,-8.098h3.628z"/><path d="M268.05587,186.07514v1.07l-7.014,7.831v-0.803z"/><path d="M261.04187,194.97614h-2.389l6.218,-7.831h3.185z"/><path d="M263.65787,181.80814h-2.494l7.055,-12.22h3.326z"/><path d="M268.21887,169.58814c0.46533,1.03867 0.76766,2.12366 0.907,3.255l-7.281,11.407c-0.10466,-0.84933 -0.33167,-1.66334 -0.681,-2.442z"/><path d="M261.84487,184.25014l-1.483,0.331l6.788,-11.296l1.976,-0.442z"/><path d="M267.14987,173.28514h5.371l-8.13,11.296h-4.029z"/><path d="M264.39087,184.58114l-1.343,-0.314l7.683,-11.4l1.79,0.418z"/><path d="M263.04787,184.26714c0.29066,-0.884 0.494,-1.70367 0.61,-2.459l7.887,-12.22c-0.15534,1.00734 -0.42667,2.10034 -0.814,3.279z"/><path d="M271.86987,169.58814l2.884,0.581l-8.689,12.075l-2.162,-0.436z"/><path d="M274.75387,170.16914c-0.74466,1.89133 -1.15566,2.93 -1.233,3.116l-8.38,11.296c0.058,-0.13933 0.366,-0.91833 0.924,-2.337z"/><path d="M273.52087,173.28514h2.442l-8.991,11.296h-1.831z"/><path d="M275.96287,173.28514v3.116l-8.991,10.517v-2.337z"/><path d="M266.97187,186.91814h-9.243l5.909,-10.517h12.325z"/><path d="M257.72887,186.91814v-2.337l5.909,-11.296v3.116z"/><path d="M263.63787,173.28514h2.465l-6.526,11.296h-1.848z"/><path d="M259.57687,184.58114c-0.058,-0.744 -0.238,-1.529 -0.54,-2.355l6.345,-12.08c0.40333,1.10066 0.64366,2.147 0.721,3.139z"/><path d="M265.38187,170.14614l2.721,-0.558l-7.026,12.22l-2.04,0.418z"/><path d="M261.07687,181.80814h-3.017l6.02,-12.22h4.023z"/><path d="M258.05987,181.80814v-2.233l6.02,-12.964v2.977z"/><path d="M264.07987,166.61114h4.139l-7.055,12.964h-3.104z"/><path d="M261.16387,179.57514v-1.412l7.055,-13.435v1.883z"/><path d="M268.21887,164.72814h3.372l-7.898,13.435h-2.529z"/><path d="M271.59087,164.72814v1.883l-7.898,12.964v-1.412z"/><path d="M271.59087,166.61114h4.093l-8.921,12.964h-3.07z"/><path d="M275.68387,166.61114v2.977l-8.921,12.22v-2.233z"/><path d="M266.76287,181.80814h-2.86l7.967,-12.22h3.814z"/><path d="M283.65987,165.72814l2.535,1.558l-11.549,12.795l-1.901,-1.168z"/><path d="M286.19487,167.28614c-1.132,3.34867 -1.98467,5.69734 -2.558,7.046l-10.909,11.034c0.43,-1.012 1.06934,-2.77366 1.918,-5.285z"/><path d="M283.63687,174.33214c1.34866,1.58133 2.023,3.41066 2.023,5.488l-11.415,9.662c0,-1.558 -0.50567,-2.93 -1.517,-4.116z"/><path d="M285.65987,179.82014c0,1.876 -0.45734,3.13933 -1.372,3.79l-11.072,8.715c0.686,-0.48866 1.029,-1.43633 1.029,-2.843z"/><path d="M273.21587,192.32514c-0.33733,0.25534 -0.76166,0.418 -1.273,0.488l10.647,-8.552c0.68266,-0.09267 1.24866,-0.30967 1.698,-0.651z"/><path d="M271.94287,192.81314c-0.256,0.03466 -0.70366,0.052 -1.343,0.052l10.2,-8.534c0.85267,0 1.44933,-0.02334 1.79,-0.07z"/><path d="M270.59987,192.86514c-0.02333,-0.988 -0.23266,-1.831 -0.628,-2.529l9.991,-9.377c0.52666,0.93067 0.80566,2.05467 0.837,3.372z"/><path d="M279.96287,180.95914c0.52666,0.03134 0.883,0.03933 1.069,0.024l-10.258,9.371c-0.13933,0.01134 -0.40666,0.00534 -0.802,-0.018z"/><path d="M281.03187,180.98314c0.34133,0 0.605,-0.062 0.791,-0.186l-10.456,9.417c-0.13934,0.09333 -0.337,0.14 -0.593,0.14z"/><path d="M271.36687,190.21414c0.256,-0.15067 0.384,-0.51667 0.384,-1.098l10.584,-9.784c0,0.77466 -0.17066,1.263 -0.512,1.465z"/><path d="M271.75087,189.11614c0,-1.20934 -0.51733,-2.35467 -1.552,-3.436l10.066,-10.93c1.38,1.442 2.07,2.96934 2.07,4.582z"/><path d="M270.19887,185.68014c0.372,-1.02334 0.79033,-2.442 1.255,-4.256l10.485,-12.348c-0.62,2.41867 -1.178,4.31 -1.674,5.674z"/><path d="M271.45387,181.42414h-1.517l9.979,-12.348h2.023z"/><path d="M279.91587,169.07614v18.046l-9.979,7.836v-13.534z"/><path d="M269.93687,194.95814h-2.529l9.136,-7.836h3.372z"/><path d="M267.40787,194.95814v-15.958l9.136,-13.156v21.278z"/><path d="M276.54387,165.84414h6.581l-10.781,13.156h-4.936z"/><path d="M283.12487,165.84414l0.535,-0.116l-10.915,13.185l-0.401,0.087z"/><path d="M251.40587,171.23914l2.744,3.046l-3.537,11.046l-2.058,-2.285z"/><path d="M250.61287,185.33114l-7.43,7.656l1.061,-8.493l9.906,-10.209z"/><path d="M243.18287,192.98714c-1.01134,-0.95334 -1.744,-2.09267 -2.198,-3.418l0.329,-9.633c0.60467,1.76734 1.58133,3.28667 2.93,4.558z"/><path d="M240.98487,189.56914c-0.45334,-1.32533 -0.51134,-2.66833 -0.174,-4.029l0.27,-10.976c-0.44933,1.814 -0.37167,3.60466 0.233,5.372z"/><path d="M241.08087,174.56414c0.46534,-1.81333 1.37233,-3.36366 2.721,-4.651l-0.95,12.139c-1.012,0.96534 -1.69233,2.128 -2.041,3.488z"/><path d="M243.80187,169.91314c1.34867,-1.28666 2.93,-2.17034 4.744,-2.651l-2.137,12.802c-1.36,0.36 -2.54566,1.02266 -3.557,1.988z"/><path d="M248.54587,167.26214c1.504,-0.40267 3.04667,-0.50333 4.628,-0.302l-3.294,12.877c-1.186,-0.15133 -2.343,-0.07566 -3.471,0.227z"/><path d="M253.17387,166.96014c1.59667,0.186 3.03067,0.775 4.302,1.767l-4.369,12.436c-0.95333,-0.74466 -2.029,-1.18667 -3.227,-1.326z"/><path d="M257.47587,168.72714c1.27134,0.97734 2.217,2.20234 2.837,3.675l-5.078,11.516c-0.46533,-1.10467 -1.17467,-2.023 -2.128,-2.755z"/><path d="M260.31287,172.40214c0.62,1.45734 0.95334,2.96866 1,4.534l-5.329,10.383c-0.03467,-1.174 -0.28434,-2.30767 -0.749,-3.401z"/><path d="M261.31287,176.93614c0.01534,1.41066 -0.14766,2.79834 -0.489,4.163l-5.206,9.342c0.256,-1.02334 0.378,-2.064 0.366,-3.122z"/><path d="M260.82387,181.09914c-0.32533,1.364 -0.86,2.62733 -1.604,3.79l-4.805,8.395c0.558,-0.872 0.959,-1.81967 1.203,-2.843z"/><path d="M254.41487,193.28414l-3.436,-1.448l3.66,-8.877l4.581,1.93z"/><path d="M254.63887,182.95914c0.57334,-0.91467 1.02266,-1.899 1.348,-2.953l-3.996,9.615c-0.24466,0.79066 -0.582,1.529 -1.012,2.215z"/><path d="M251.99087,189.62114c0.25534,-0.79066 0.39467,-1.59867 0.418,-2.424l4.136,-10.424c-0.03066,1.10134 -0.21667,2.179 -0.558,3.233z"/><path d="M252.40887,187.19714c-0.03467,-0.72066 -0.18,-1.41233 -0.436,-2.075l3.991,-11.116c0.34133,0.884 0.535,1.80633 0.581,2.767z"/><path d="M251.97287,185.12214c-0.256,-0.67467 -0.628,-1.27366 -1.116,-1.797l3.619,-11.714c0.65134,0.69734 1.14733,1.49567 1.488,2.395z"/><path d="M250.85687,183.32514c-0.384,-0.40667 -0.84333,-0.69734 -1.378,-0.872l3.16,-12.005c0.71267,0.23266 1.325,0.62034 1.837,1.163z"/><path d="M249.47887,182.45314c-0.52334,-0.174 -1.064,-0.20866 -1.622,-0.104l2.619,-12.04c0.744,-0.14 1.465,-0.09367 2.163,0.139z"/><path d="M247.85687,182.34914c-0.54666,0.09267 -1.05233,0.267 -1.517,0.523l2.113,-11.866c0.62,-0.34067 1.29433,-0.573 2.023,-0.697z"/><path d="M246.33987,182.87214c-0.628,0.32533 -1.19767,0.74366 -1.709,1.255l1.543,-11.446c0.682,-0.682 1.44167,-1.24033 2.279,-1.675z"/><path d="M244.63087,184.12714c-0.512,0.512 -0.81433,1.12834 -0.907,1.849l1.241,-10.83c0.124,-0.96133 0.527,-1.783 1.209,-2.465z"/><path d="M244.96487,175.14614c-0.10867,0.94534 0.10066,1.83667 0.628,2.674l-1.398,10.162c-0.39533,-0.628 -0.55233,-1.29666 -0.471,-2.006z"/><path d="M245.59287,177.82014l5.813,-6.581l-2.851,11.807l-4.36,4.936z"/><path d="M215.57117,178.49414l6.674,-9.441l4.4387,12.354l-5.0056,7.081z"/><path d="M222.24517,169.05314c1.2092,1.16267 2.45717,2.279 3.7439,3.349l3.5027,11.516c-0.96507,-0.802 -1.90103,-1.639 -2.8079,-2.511z"/><path d="M225.98907,172.40214c1.28673,1.054 2.64323,2.03066 4.0695,2.93l2.4854,10.784c-1.06974,-0.67467 -2.08713,-1.40734 -3.0522,-2.198z"/><path d="M230.05857,175.33214c2.71307,1.72066 5.6045,3.09266 8.6743,4.116l0.316,9.755c-2.302,-0.76734 -4.4703,-1.79633 -6.5049,-3.087z"/><path d="M239.04887,189.20314l-0.784,3l-0.579,-8.755l1.047,-4z"/><path d="M238.26487,192.20314c-2.128,-0.57 -4.1338,-1.43067 -6.0174,-2.582l-2.5842,-9.615c2.51146,1.53466 5.18567,2.682 8.0226,3.442z"/><path d="M232.24747,189.62114c-1.7906,-1.09267 -3.4998,-2.30766 -5.1276,-3.645l-4.2934,-10.83c2.1704,1.78267 4.44933,3.40267 6.8368,4.86z"/><path d="M227.11987,185.97614l-3.087,4.43l-5.3224,-9.354l4.116,-5.906z"/><path d="M224.03287,190.40614l-2.3546,-1.918l-6.1071,-9.994l3.1393,2.558z"/><path d="M232.33467,184.12714l-1.0639,-2.808l-2.9097,-12.382l1.4185,3.744z"/><path d="M228.36107,168.93714l1.6975,-0.628l2.4854,12.54l-1.2732,0.47z"/><path d="M230.05857,168.30914l1.4883,3.79l2.1133,11.592l-1.1162,-2.842z"/><path d="M233.66017,183.69114l-1.3255,0.436l-2.5551,-11.446l1.7673,-0.582z"/><path d="M234.54967,183.39514l-1.0465,-2.895l-2.1656,-12.656l1.3953,3.86z"/><path d="M231.33757,167.84414l1.7441,-0.628l1.7296,12.813l-1.3081,0.471z"/><path d="M233.08167,167.21614l1.4883,3.907l1.3579,11.836l-1.1166,-2.93z"/><path d="M235.92787,182.95914l-1.3782,0.436l-1.8168,-11.691l1.8371,-0.581z"/><path d="M197.29317,165.42514l3.8602,-0.209l9.7117,13.313l-2.8952,0.157z"/><path d="M210.86507,178.52914l-0.0523,5.878l-9.7291,-11.354l0.0697,-7.837z"/><path d="M201.08367,173.05314l5.6973,-4.581l8.3047,12.499l-4.2729,3.436z"/><path d="M206.78097,168.47214l3.0928,1.046l7.5316,12.238l-2.3197,-0.785z"/><path d="M217.40537,181.75614c-0.22093,1.232 -0.43023,2.46433 -0.6279,3.697l-7.7408,-11.005c0.26353,-1.64334 0.54256,-3.28666 0.8371,-4.93z"/><path d="M216.77747,185.45314c-0.19767,1.22066 -0.35464,2.44167 -0.4709,3.663l-7.8978,-9.785c0.15507,-1.62733 0.36437,-3.255 0.6279,-4.883z"/><path d="M216.30657,189.11614c-0.03493,0.232 -0.00007,0.447 0.1046,0.645l-7.8629,-9.569c-0.13953,-0.26334 -0.18604,-0.55033 -0.1395,-0.861z"/><path d="M208.54827,180.19214c0.13953,0.26334 0.37984,0.38734 0.7209,0.372l7.6827,9.476c-0.2558,0.01134 -0.43603,-0.08166 -0.5407,-0.279z"/><path d="M209.26917,180.56414c0.34106,-0.01533 0.6744,-0.085 1,-0.209l7.4327,9.528c-0.2442,0.09267 -0.4942,0.145 -0.75,0.157z"/><path d="M210.26917,180.35514c0.32554,-0.14 0.64334,-0.28734 0.9534,-0.442l7.1943,9.639c-0.23254,0.116 -0.47087,0.22633 -0.715,0.331z"/><path d="M211.22257,179.91314c1.0232,-0.54266 2.0309,-1.11633 3.0231,-1.721l6.4385,10.069c-0.74413,0.45334 -1.4999,0.88367 -2.2673,1.291z"/><path d="M220.68417,188.26114l0.5756,3l-6.2467,-9.069l-0.7674,-4z"/><path d="M221.25977,191.26114c-1.0348,0.686 -2.1452,1.186 -3.3312,1.5l-7.3571,-8.569c1.58127,-0.41867 3.0618,-1.08533 4.4416,-2z"/><path d="M217.92857,192.76114c-0.73254,0.20934 -1.47087,0.20334 -2.215,-0.018l-8.0954,-8.575c0.99213,0.29467 1.97656,0.30266 2.9533,0.024z"/><path d="M215.71357,192.74314c-0.73254,-0.22066 -1.3139,-0.645 -1.7441,-1.273l-8.6768,-8.999c0.5736,0.83733 1.34877,1.403 2.3255,1.697z"/><path d="M205.29267,182.47114c-0.55806,-0.85267 -0.76734,-1.80633 -0.6278,-2.861l8.8337,9.715c-0.1046,0.79066 0.05237,1.50567 0.4709,2.145z"/><path d="M204.66487,179.61014c0.155,-1.95334 0.37204,-3.922 0.6511,-5.906l8.671,11.191c-0.20934,1.488 -0.37213,2.96466 -0.4884,4.43z"/><path d="M213.98697,184.89514l-3.1917,2.79l-9.7349,-10.26l4.2556,-3.721z"/><path d="M210.79527,187.68514l-0.0697,7.517l-9.7582,-7.755l0.093,-10.022z"/><path d="M210.72557,195.20214l-2.7033,0.07l-10.6593,-7.732l3.6044,-0.093z"/><path d="M197.36297,187.54014l-0.0233,-7.092l10.6651,9.505l0.0175,5.319z"/><path d="M208.00477,189.95314c-0.91853,1.116 -1.78476,2.267 -2.5987,3.453l-11.5313,-8.354c1.0852,-1.58133 2.24016,-3.116 3.4649,-4.604z"/><path d="M193.87477,185.05214l-2.5812,-2.767l12.1766,9.045l1.9359,2.076z"/><path d="M191.29357,182.28514c1.89133,-2.21733 3.8602,-4.38 5.9066,-6.488l10.6999,10.667c-1.53474,1.58133 -3.01137,3.20333 -4.4299,4.866z"/><path d="M207.90007,186.46414l-4.3602,-2.354l-12.1533,-11.453l5.8136,3.14z"/><path d="M191.38657,172.65714l1.0464,-3.511l11.8918,12.33l-0.7849,2.634z"/><path d="M192.43297,169.14614l4.8835,2.744l10.6709,11.644l-3.6626,-2.058z"/><path d="M197.31647,171.89014l-0.0233,-6.465l10.6767,13.261l0.0175,4.848z"/><path d="M182.34057,172.37814l2.2092,-0.465l13.8625,11.639l-1.6568,0.349z"/><path d="M198.41227,183.55214l0.6279,3.069l-13.6532,-10.615l-0.8372,-4.093z"/><path d="M199.04017,186.62114l-1.6743,0.419l-14.2114,-10.476l2.2325,-0.558z"/><path d="M183.15447,176.56414l-0.8139,-4.186l14.4149,11.523l0.6104,3.139z"/><path d="M185.73577,171.61114l2.2091,-0.465l13.0138,11.83l-1.6569,0.349z"/><path d="M200.95867,182.97614l0.6453,3.07l-12.7987,-10.807l-0.8604,-4.093z"/><path d="M201.60397,186.04614l-1.6743,0.436l-13.3568,-10.662l2.2324,-0.581z"/><path d="M186.57287,175.82014l-0.8371,-4.209l13.566,11.714l0.6279,3.157z"/><path d="M180.22447,167.44814l3.3951,2.349l14.0951,12.168l-2.5464,-1.762z"/><path d="M197.71467,181.96514l-6.2438,4.97l-16.1764,-10.51l8.3251,-6.628z"/><path d="M175.29447,176.42514l10.7901,5.185l13.4788,9.215l-8.0925,-3.89z"/><path d="M199.56337,190.82514l-1.465,3.244l-13.9672,-8.133l1.9534,-4.326z"/><path d="M198.09837,194.06914l-9.9413,-5.267l-17.2809,-9.889l13.255,7.023z"/><path d="M170.87617,178.91314l-0.279,-3.791l17.3506,10.837l0.2093,2.843z"/><path d="M170.59717,175.12214l9.6273,-7.674l14.9438,12.755l-7.2205,5.756z"/></g><path d="M302.86813,175.40166h-2.67426c-0.29456,0.40308 -0.57361,0.79065 -0.83716,1.16272l3.44165,-0.11628c-0.07751,-0.062 -0.20154,-0.15502 -0.37207,-0.27905c-0.15503,-0.13952 -0.2713,-0.2403 -0.34881,-0.30231zM304.868,168.30907h-11.46441v0.90692h11.46441zM302.40304,183.93602h6.99957v2.69751h-17.16174v-2.69751h6.79028v-1.11621h-5.302v-2.69751h5.302v-1.02319l-5.62756,0.23254l-0.11627,-2.62775l2.37194,-0.0465c0.27905,-0.48058 0.51935,-0.89917 0.72089,-1.25573h-3.04633c-0.24805,5.23998 -1.20923,9.14673 -2.88354,11.72021c-0.34107,-0.29456 -0.82941,-0.62787 -1.46503,-0.99994c-0.63562,-0.35656 -1.17822,-0.62011 -1.62781,-0.79065c0.55811,-0.85266 1.01544,-1.8216 1.37201,-2.9068c0.37207,-1.0852 0.63563,-2.24016 0.79065,-3.4649c0.15503,-1.22474 0.2558,-2.29443 0.30231,-3.20911c0.04654,-0.91467 0.0698,-1.96112 0.0698,-3.13934v-7.04608h18.48725v6.41821h-14.97583v0.62787v0.11627h15.55719v2.67426h-2.69751c1.44178,1.13172 2.47271,2.06964 3.09283,2.81378l-2.9068,1.76733c-0.34106,-0.43408 -0.67438,-0.8139 -0.99994,-1.13946l-3.04632,0.11627v1.16272h5.37176v2.69751h-5.37176zM271.68398,180.6804h-3.62768v2.41846h3.62768zM264.87044,187.14513v-9.44129h10.16218v9.37152h-3.34864v-0.99994h-3.62768v1.06971zM271.54446,169.58806h-3.32538c0.46509,1.03869 0.7674,2.12389 0.90692,3.25561l-1.97662,0.44184h5.37176l-1.79059,-0.41858c0.38758,-1.17822 0.65888,-2.27118 0.81391,-3.27887zM271.87002,169.58806l2.88354,0.58136c-0.74414,1.89136 -1.15496,2.93005 -1.23248,3.11609h2.44171v3.11609h-12.32483v-3.11609h2.46497c-0.07751,-0.99219 -0.31781,-2.03863 -0.72089,-3.13935l2.72077,-0.5581h-4.02301v-2.97656h4.13928v-1.88361h3.37188v1.88361h4.09278v2.97656zM283.66,165.72783l2.53472,1.55804c-1.13171,3.34864 -1.98437,5.69733 -2.55798,7.04608c1.34875,1.5813 2.02313,3.41064 2.02313,5.48804c0,1.87586 -0.45734,3.13934 -1.37201,3.79047c-0.44958,0.34106 -1.01544,0.5581 -1.69757,0.65112c-0.34106,0.04654 -0.93792,0.0698 -1.79058,0.0698c-0.031,-1.31775 -0.31006,-2.44171 -0.83716,-3.37188c0.5271,0.031 0.88367,0.03877 1.0697,0.0233c0.34107,0 0.60462,-0.06201 0.79065,-0.18603c0.34107,-0.20154 0.5116,-0.68989 0.5116,-1.46503c0,-1.6123 -0.68989,-3.13934 -2.06965,-4.58112c0.49609,-1.36425 1.0542,-3.25561 1.67432,-5.67407h-2.02313v18.04541h-3.37189v-21.27777h6.58099zM251.40615,171.23912l2.74402,3.04633l-9.90637,10.20867c-1.34876,-1.27124 -2.32545,-2.79053 -2.93006,-4.55786c-0.60461,-1.76734 -0.68213,-3.55792 -0.23254,-5.37176c0.46508,-1.81384 1.372,-3.36414 2.72076,-4.65088c1.34876,-1.28674 2.93006,-2.17042 4.7439,-2.651c1.50378,-0.40308 3.04632,-0.50385 4.62762,-0.30231c1.5968,0.18604 3.03083,0.77515 4.30207,1.76734c1.27124,0.97668 2.21691,2.20141 2.83703,3.67419c0.62012,1.45728 0.95344,2.96881 0.99994,4.53461c0.01553,1.41076 -0.14724,2.79828 -0.48834,4.16253c-0.32556,1.36426 -0.86041,2.62775 -1.60455,3.79047l-4.58112,-1.93012c0.57361,-0.91467 1.02319,-1.8991 1.34876,-2.9533c0.34106,-1.0542 0.5271,-2.13165 0.5581,-3.23236c-0.04654,-0.96119 -0.24032,-1.88361 -0.58136,-2.76728c-0.34106,-0.89917 -0.83716,-1.69757 -1.48828,-2.3952c-0.51159,-0.5426 -1.12396,-0.93017 -1.8371,-1.16272c-0.69762,-0.23254 -1.41852,-0.27905 -2.16266,-0.13953c-0.72863,0.12402 -1.40301,0.35658 -2.02313,0.69764c-0.83715,0.43408 -1.5968,0.99218 -2.27893,1.67431c-0.68213,0.68213 -1.08521,1.50379 -1.20923,2.46497c-0.10852,0.94568 0.10077,1.8371 0.62787,2.67425zM215.57113,178.49449l6.67401,-9.44128c1.20923,1.16272 2.45721,2.27893 3.74396,3.34863c1.28674,1.0542 2.64325,2.03089 4.06952,2.93005c2.71302,1.72082 5.60431,3.09284 8.67389,4.11603l-1.04645,3.99976c-2.83704,-0.75965 -5.5113,-1.90686 -8.02277,-3.44165c-2.38745,-1.45728 -4.66638,-3.07734 -6.83679,-4.86017l-4.11603,5.90661zM229.77956,172.68089l-1.41851,-3.74396l1.69757,-0.62786l1.48828,3.79046zM232.73287,171.70421l-1.39526,-3.86023l1.74408,-0.62787l1.48828,3.90674zM197.29318,165.42552l3.86022,-0.20929l-0.0698,7.83673l5.69733,-4.58111l3.09284,1.04644c-0.29456,1.64332 -0.57361,3.28662 -0.83716,4.92994c-0.26355,1.6278 -0.47285,3.25562 -0.62787,4.88342c-0.04654,0.31006 -0.00002,0.59687 0.13952,0.86041c0.13952,0.26355 0.37983,0.38757 0.72089,0.37207c0.34106,-0.01547 0.67438,-0.08523 0.99994,-0.20929c0.32556,-0.13952 0.64337,-0.2868 0.95343,-0.44183c1.02319,-0.5426 2.03089,-1.11621 3.02307,-1.72083l0.7674,3.99976c-1.37976,0.91467 -2.86029,1.5813 -4.44159,1.99988c-0.97669,0.27905 -1.96112,0.27129 -2.95331,-0.0233c-0.97669,-0.29456 -1.75184,-0.86041 -2.32544,-1.69757c-0.55811,-0.85266 -0.76739,-1.80609 -0.62787,-2.86029c0.15502,-1.95336 0.37207,-3.92224 0.65112,-5.90661l-4.25555,3.7207l-0.09302,10.02264l-3.60443,0.093l-0.02325,-7.09259c-1.22473,1.48828 -2.3797,3.02307 -3.4649,4.60437l-2.58124,-2.76727c1.89136,-2.21692 3.86023,-4.37958 5.90662,-6.48798l-5.8136,-3.13934l1.04645,-3.51142l4.88343,2.74402zM182.3406,172.37859l2.20916,-0.46509l0.83716,4.09277l-2.23242,0.55811zM185.73574,171.61119l2.20917,-0.46509l0.86041,4.09278l-2.23242,0.58136zM180.22445,167.44865l3.39514,2.3487l-8.32507,6.6275l10.79004,5.18573l-1.95337,4.32532l-13.25501,-7.02283l-0.27905,-3.79047z" fill="#5da797" stroke="#ffffff" stroke-width="5"/><path d="M302.86813,175.40163h-2.67426c-0.29456,0.40308 -0.57361,0.79064 -0.83716,1.16272l3.44165,-0.11628c-0.07751,-0.062 -0.20154,-0.15502 -0.37207,-0.27905c-0.15503,-0.13952 -0.2713,-0.24029 -0.34881,-0.30231zM304.868,168.30904h-11.46441v0.90692h11.46441zM302.40304,183.93599h6.99957v2.69751h-17.16174v-2.69751h6.79028v-1.11621h-5.302v-2.69751h5.302v-1.02319l-5.62756,0.23254l-0.11627,-2.62775l2.37194,-0.0465c0.27905,-0.48058 0.51935,-0.89917 0.72089,-1.25573h-3.04633c-0.24805,5.23998 -1.20923,9.14672 -2.88354,11.72021c-0.34107,-0.29456 -0.82941,-0.62786 -1.46503,-0.99994c-0.63562,-0.35656 -1.17822,-0.62011 -1.62781,-0.79065c0.55811,-0.85266 1.01544,-1.8216 1.37201,-2.9068c0.37207,-1.0852 0.63563,-2.24016 0.79065,-3.4649c0.15503,-1.22474 0.2558,-2.29444 0.30231,-3.20911c0.04654,-0.91467 0.0698,-1.96112 0.0698,-3.13934v-7.04608h18.48725v6.41821h-14.97583v0.62787v0.11627h15.55719v2.67426h-2.69751c1.44178,1.13172 2.47271,2.06964 3.09283,2.81378l-2.9068,1.76733c-0.34106,-0.43408 -0.67438,-0.8139 -0.99994,-1.13946l-3.04632,0.11627v1.16272h5.37176v2.69751h-5.37176zM271.68398,180.68037h-3.62768v2.41846h3.62768zM264.87044,187.1451v-9.44129h10.16218v9.37152h-3.34864v-0.99994h-3.62768v1.06971zM271.54446,169.58803h-3.32538c0.46509,1.03869 0.7674,2.12389 0.90692,3.25561l-1.97662,0.44184h5.37176l-1.79059,-0.41858c0.38758,-1.17822 0.65888,-2.27119 0.81391,-3.27887zM271.87002,169.58803l2.88354,0.58136c-0.74414,1.89136 -1.15496,2.93005 -1.23248,3.11609h2.44171v3.11609h-12.32483v-3.11609h2.46497c-0.07751,-0.99219 -0.31781,-2.03863 -0.72089,-3.13935l2.72077,-0.5581h-4.02301v-2.97656h4.13928v-1.88361h3.37188v1.88361h4.09278v2.97656zM283.66,165.7278l2.53472,1.55804c-1.13171,3.34864 -1.98437,5.69732 -2.55798,7.04608c1.34875,1.5813 2.02313,3.41065 2.02313,5.48804c0,1.87586 -0.45734,3.13934 -1.37201,3.79047c-0.44958,0.34106 -1.01544,0.5581 -1.69757,0.65112c-0.34106,0.04654 -0.93792,0.0698 -1.79058,0.0698c-0.031,-1.31775 -0.31006,-2.44171 -0.83716,-3.37188c0.5271,0.031 0.88367,0.03877 1.0697,0.0233c0.34107,0 0.60462,-0.06201 0.79065,-0.18603c0.34107,-0.20154 0.5116,-0.68988 0.5116,-1.46503c0,-1.6123 -0.68989,-3.13935 -2.06965,-4.58112c0.49609,-1.36426 1.0542,-3.25561 1.67432,-5.67407h-2.02313v18.04541h-3.37189v-21.27777h6.58099zM251.40615,171.23909l2.74402,3.04633l-9.90637,10.20867c-1.34876,-1.27124 -2.32545,-2.79053 -2.93006,-4.55786c-0.60461,-1.76734 -0.68213,-3.55792 -0.23254,-5.37176c0.46508,-1.81384 1.372,-3.36414 2.72076,-4.65088c1.34876,-1.28674 2.93006,-2.17042 4.7439,-2.651c1.50378,-0.40308 3.04632,-0.50385 4.62762,-0.30231c1.5968,0.18604 3.03083,0.77514 4.30207,1.76734c1.27124,0.97668 2.21691,2.20141 2.83703,3.67419c0.62012,1.45728 0.95344,2.96881 0.99994,4.53461c0.01553,1.41076 -0.14724,2.79827 -0.48834,4.16253c-0.32556,1.36426 -0.86041,2.62775 -1.60455,3.79047l-4.58112,-1.93012c0.57361,-0.91467 1.02319,-1.8991 1.34876,-2.9533c0.34106,-1.0542 0.5271,-2.13165 0.5581,-3.23236c-0.04654,-0.96119 -0.24032,-1.88361 -0.58136,-2.76728c-0.34106,-0.89917 -0.83716,-1.69756 -1.48828,-2.3952c-0.51159,-0.5426 -1.12396,-0.93018 -1.8371,-1.16272c-0.69762,-0.23254 -1.41852,-0.27905 -2.16266,-0.13953c-0.72863,0.12402 -1.40301,0.35658 -2.02313,0.69764c-0.83715,0.43408 -1.5968,0.99218 -2.27893,1.67431c-0.68213,0.68213 -1.08521,1.50379 -1.20923,2.46497c-0.10852,0.94568 0.10077,1.8371 0.62787,2.67425zM215.57113,178.49446l6.67401,-9.44128c1.20923,1.16272 2.45721,2.27893 3.74395,3.34863c1.28674,1.0542 2.64325,2.03088 4.06952,2.93005c2.71302,1.72082 5.60431,3.09284 8.6739,4.11603l-1.04645,3.99976c-2.83704,-0.75965 -5.5113,-1.90687 -8.02277,-3.44165c-2.38745,-1.45728 -4.66638,-3.07734 -6.83679,-4.86017l-4.11603,5.90661zM229.77957,172.68086l-1.41852,-3.74396l1.69757,-0.62786l1.48829,3.79046zM232.73287,171.70418l-1.39526,-3.86023l1.74408,-0.62787l1.48828,3.90674zM197.29318,165.42549l3.86023,-0.20929l-0.06976,7.83673l5.69733,-4.58111l3.09283,1.04644c-0.29456,1.64332 -0.57361,3.28663 -0.83716,4.92994c-0.26355,1.6278 -0.47284,3.25562 -0.62787,4.88342c-0.0465,0.31006 0,0.59686 0.13953,0.86041c0.13952,0.26355 0.37982,0.38757 0.72088,0.37207c0.34106,-0.01547 0.67438,-0.08523 0.99994,-0.20929c0.32556,-0.13952 0.64337,-0.28681 0.95343,-0.44183c1.02319,-0.5426 2.03088,-1.11621 3.02307,-1.72083l0.7674,3.99976c-1.37976,0.91467 -2.86029,1.5813 -4.44159,1.99988c-0.97669,0.27905 -1.96112,0.27129 -2.9533,-0.0233c-0.97669,-0.29456 -1.75183,-0.86041 -2.32544,-1.69757c-0.55811,-0.85266 -0.76739,-1.80609 -0.62787,-2.86029c0.15503,-1.95336 0.37207,-3.92224 0.65113,-5.90661l-4.25556,3.7207l-0.09302,10.02264l-3.60443,0.093l-0.02325,-7.09259c-1.22473,1.48828 -2.3797,3.02307 -3.46491,4.60437l-2.58124,-2.76727c1.89136,-2.21692 3.86023,-4.37958 5.90661,-6.48798l-5.81359,-3.13934l1.04645,-3.51142l4.88342,2.74402zM182.3406,172.37856l2.20916,-0.46509l0.83716,4.09277l-2.23242,0.55811zM185.73574,171.61116l2.20917,-0.46509l0.86041,4.09278l-2.23242,0.58136zM180.22445,167.44862l3.39514,2.3487l-8.32507,6.6275l10.79004,5.18573l-1.95337,4.32532l-13.25501,-7.02283l-0.27905,-3.79047z" fill="#5da797" stroke="none" stroke-width="112.5"/></g></g></svg>