<svg version="1.1" xmlns="http://www.w3.org/2000/svg" xmlns:xlink="http://www.w3.org/1999/xlink" width="153.15315" height="153.15315" viewBox="0,0,153.15315,153.15315"><defs><linearGradient x1="242.63206" y1="174.28641" x2="235.91234" y2="183.17059" gradientUnits="userSpaceOnUse" id="color-1"><stop offset="0" stop-color="#759fed"/><stop offset="1" stop-color="#52edae"/></linearGradient><linearGradient x1="223.15707" y1="200.06598" x2="216.43736" y2="208.95016" gradientUnits="userSpaceOnUse" id="color-2"><stop offset="0" stop-color="#51edae"/><stop offset="1" stop-color="#f9f88a"/></linearGradient></defs><g transform="translate(-167.55101,-100.50516)"><g data-paper-data="{&quot;isPaintingLayer&quot;:true}" stroke="none" stroke-dasharray="" stroke-dashoffset="0" style="mix-blend-mode: normal"><path d="M167.55101,253.65831v-153.15315h153.15315v153.15315z" fill="#ffffff" fill-rule="nonzero" stroke-width="0" stroke-linecap="butt" stroke-linejoin="miter" stroke-miterlimit="10"/><path d="M283.35761,120.35399l-3.48882,10.20755l8.6288,6.47145l-10.78314,-0.16458l-3.49042,10.20637l-3.17631,-10.30725l-10.78432,-0.16297l8.82065,-6.20878l-3.17749,-10.30567l8.62879,6.47145z" fill="#759fed" fill-rule="evenodd" stroke-width="1" stroke-linecap="butt" stroke-linejoin="round" stroke-miterlimit="2"/><path d="M201.55102,218.87264l7.97377,-0.72847l0.72846,7.97377l-7.97377,0.72846z" data-paper-data="{&quot;index&quot;:null}" fill="#faf28a" fill-rule="evenodd" stroke-width="1" stroke-linecap="butt" stroke-linejoin="round" stroke-miterlimit="2"/><path d="M267.68404,141.26721l1.57225,3.77411l-2.48289,3.24868l-4.0545,-0.52626l-1.57225,-3.7741l2.48289,-3.24869z" fill="#759fed" fill-rule="evenodd" stroke-width="1" stroke-linecap="butt" stroke-linejoin="round" stroke-miterlimit="2"/><path d="M266.06348,150.12393c0.38256,1.77417 -0.00211,3.70062 -1.21719,5.23335c-2.15517,2.71858 -6.11111,3.1759 -8.82972,1.02075c-2.71858,-2.15517 -3.17591,-6.11112 -1.02074,-8.82972c1.17118,-1.47736 2.87411,-2.28731 4.62284,-2.37273c-1.043,0.87033 -1.64103,2.23208 -1.47366,3.67997c0.26395,2.28329 2.33175,3.92337 4.61502,3.65942c1.49472,-0.17279 2.71313,-1.11844 3.30343,-2.39103z" fill="#759fed" fill-rule="evenodd" stroke-width="1" stroke-linecap="butt" stroke-linejoin="round" stroke-miterlimit="2"/><path d="M246.84726,177.78529l-8.88103,-6.69702l6.69702,-8.88104l8.88103,6.69703z" fill="#759fed" fill-rule="evenodd" stroke-width="1" stroke-linecap="butt" stroke-linejoin="round" stroke-miterlimit="2"/><path d="M254.71349,158.11725l-1.27018,10.92226l-8.88171,-6.69752z" fill="#759fed" fill-rule="evenodd" stroke-width="1" stroke-linecap="round" stroke-linejoin="miter" stroke-miterlimit="1.5"/><path d="M240.36421,186.51753l-8.88103,-6.69702l6.69702,-8.88104l8.88104,6.69702z" fill="url(#color-1)" fill-rule="evenodd" stroke-width="1" stroke-linecap="butt" stroke-linejoin="round" stroke-miterlimit="2"/><path d="M218.70521,196.71904l8.88103,6.69703l-6.69702,8.88103l-8.88103,-6.69702z" data-paper-data="{&quot;index&quot;:null}" fill="url(#color-2)" fill-rule="evenodd" stroke-width="1" stroke-linecap="butt" stroke-linejoin="round" stroke-miterlimit="2"/><path d="M210.83898,216.38708l1.27019,-10.92226l8.8817,6.69752z" data-paper-data="{&quot;index&quot;:null}" fill="#faf28a" fill-rule="evenodd" stroke-width="1" stroke-linecap="round" stroke-linejoin="miter" stroke-miterlimit="1.5"/><path d="M225.18827,188.18798l8.88104,6.69702l-6.69702,8.88103l-8.88104,-6.69702z" data-paper-data="{&quot;index&quot;:null}" fill="#51edae" fill-rule="evenodd" stroke-width="1" stroke-linecap="butt" stroke-linejoin="round" stroke-miterlimit="2"/><path d="M231.82551,179.53402l8.88104,6.69702l-6.69703,8.88104l-8.88103,-6.69703z" data-paper-data="{&quot;index&quot;:null}" fill="#51edae" fill-rule="evenodd" stroke-width="1" stroke-linecap="butt" stroke-linejoin="round" stroke-miterlimit="2"/><path d="M290.89486,123.3807c0,1.71648 1.39149,3.10797 3.10799,3.10798c-1.7165,0.00001 -3.10799,1.39151 -3.10799,3.10799c0,-1.71648 -1.39149,-3.10798 -3.10799,-3.10799c1.7165,-0.00001 3.10799,-1.3915 3.10799,-3.10798z" fill="#759fed" fill-rule="evenodd" stroke-width="0.17306" stroke-linecap="butt" stroke-linejoin="round" stroke-miterlimit="10"/><path d="M257.60273,125.84523c0,1.71648 1.39149,3.10797 3.10799,3.10799c-1.7165,0.00001 -3.10799,1.3915 -3.10799,3.10799c0,-1.71649 -1.39149,-3.10798 -3.10799,-3.10799c1.7165,-0.00001 3.10799,-1.3915 3.10799,-3.10799z" fill="#759fed" fill-rule="evenodd" stroke-width="0.17306" stroke-linecap="butt" stroke-linejoin="round" stroke-miterlimit="10"/><path d="M283.66536,141.73708c0,1.71649 1.39149,3.10797 3.10799,3.10799c-1.7165,0.00001 -3.10799,1.3915 -3.10799,3.10799c0,-1.71649 -1.39149,-3.10797 -3.10799,-3.10799c1.7165,-0.00001 3.10799,-1.3915 3.10799,-3.10799z" fill="#759fed" fill-rule="evenodd" stroke-width="0.17306" stroke-linecap="butt" stroke-linejoin="round" stroke-miterlimit="10"/><path d="M213.72654,220.38881l1.53122,-1.43293l1.43293,1.53123l-1.53123,1.43294z" data-paper-data="{&quot;index&quot;:null}" fill="#faf28a" fill-rule="evenodd" stroke-width="1" stroke-linecap="butt" stroke-linejoin="round" stroke-miterlimit="2"/><path d="M194.25231,221.50115l1.53123,-1.43293l1.43292,1.53123l-1.53122,1.43292z" data-paper-data="{&quot;index&quot;:null}" fill="#faf28a" fill-rule="evenodd" stroke-width="1" stroke-linecap="butt" stroke-linejoin="round" stroke-miterlimit="2"/><path d="M203.46851,233.41729l0.65608,-1.99186l1.99186,0.65607l-0.65608,1.99186z" data-paper-data="{&quot;index&quot;:null}" fill="#faf28a" fill-rule="evenodd" stroke-width="1" stroke-linecap="butt" stroke-linejoin="round" stroke-miterlimit="2"/></g></g></svg>